<svg xmlns="http://www.w3.org/2000/svg" width="111" height="33" fill="none" viewBox="0 0 111 33"><path fill="#0D0619" d="M16.906 32.448c9.06 0 16.406-7.19 16.406-16.06 0-8.87-7.346-16.061-16.406-16.061C7.846.327.5 7.517.5 16.387c0 8.87 7.345 16.06 16.406 16.06Z"/><path fill="#04FFA4" d="M11.032 23.284a8.197 8.197 0 0 1-2.291-.305c-1.435-.446-2.171-1.382-2.266-2.858-.022-.923.074-1.846.285-2.745.264-1.383.472-2.814.8-4.2.585-2.476 2.35-3.955 4.934-4.238a8.433 8.433 0 0 1 3.849.297c.491.18.936.463 1.304.83.148.145.18.235 0 .387-.545.502-1.19.89-1.893 1.137a5.539 5.539 0 0 1-2.199.3c-1.41-.103-2.308.547-2.58 1.923-.303 1.559-.553 3.11-.821 4.694a3.274 3.274 0 0 0-.028.491 1.138 1.138 0 0 0 .314.87 1.182 1.182 0 0 0 .863.368c1.41.169 2.27-.405 2.618-1.729.064-.242.152-.311.402-.308h2.971c.099 0 .29-.096.254.156-.271 1.929-1.078 3.505-2.996 4.338a8.577 8.577 0 0 1-3.52.591Z"/><path fill="#04FFA4" d="M19.57 14.617c-1.17 1.103-2.63 1.29-4.117 1.414-.25.02-.504.02-.75.042-.247.02-.332 0-.279-.284.18-.926.353-1.86.5-2.793.04-.232.184-.197.353-.207a5.193 5.193 0 0 0 2.954-.975 4.593 4.593 0 0 0 1.628-2.334.341.341 0 0 1 .144-.24.356.356 0 0 1 .279-.057h3.44c.295 0 .324.086.278.346-.804 4.464-1.601 8.925-2.393 13.385-.046.255-.134.321-.388.318h-2.936c-.271 0-.352-.045-.285-.346.525-2.693 1.033-5.393 1.544-8.089.01-.038.017-.093.028-.18ZM24.966 23.221h-1.787c-.271 0-.306-.069-.257-.318.194-.985.352-1.974.536-2.962.035-.204.098-.294.352-.294h3.616c.204 0 .3.02.257.266-.18.989-.349 1.979-.504 2.97-.038.252-.13.345-.405.345-.613-.007-1.209-.007-1.808-.007Z"/><path fill="#0D0619" d="M42.67 22.945c-1.457 0-2.616-.403-3.476-1.21-.86-.806-1.292-1.966-1.297-3.478v-2.765c0-1.512.433-2.671 1.297-3.478.865-.806 2.023-1.21 3.475-1.21 1.455 0 2.577.39 3.366 1.169.79.779 1.184 1.847 1.184 3.204v.094H45.21v-.152a2.646 2.646 0 0 0-.623-1.812c-.416-.47-1.058-.691-1.918-.691a2.64 2.64 0 0 0-1.075.171 2.598 2.598 0 0 0-.909.59 2.906 2.906 0 0 0-.726 2.094v2.835c-.038.757.222 1.5.726 2.074.256.26.565.463.907.595.343.132.71.191 1.077.172.864 0 1.502-.238 1.918-.691.428-.508.65-1.153.623-1.811v-.284h2.01v.232c0 1.36-.395 2.428-1.185 3.204-.79.777-1.911 1.16-3.366 1.148ZM47.602 22.71V11.033h1.96v4.521h.293c.107-.215.257-.408.44-.567.236-.207.511-.367.81-.47a3.774 3.774 0 0 1 1.27-.183 3.403 3.403 0 0 1 1.723.429c.496.282.9.698 1.163 1.2.29.562.433 1.187.416 1.817v4.93h-1.96v-4.788a1.99 1.99 0 0 0-.5-1.493 1.939 1.939 0 0 0-1.41-.491 2.085 2.085 0 0 0-.896.155 2.049 2.049 0 0 0-.74.519 2.821 2.821 0 0 0-.598 1.929v4.169h-1.97ZM59.07 22.945a4.05 4.05 0 0 1-1.604-.308 2.677 2.677 0 0 1-1.131-.892 2.41 2.41 0 0 1-.42-1.438 2.297 2.297 0 0 1 .42-1.383 2.582 2.582 0 0 1 1.135-.888c.532-.201 1.1-.3 1.67-.29h2.435v-.491a1.41 1.41 0 0 0-.408-1.058 1.725 1.725 0 0 0-1.276-.411 1.85 1.85 0 0 0-1.287.394 1.82 1.82 0 0 0-.57 1.01l-1.809-.585c.137-.434.36-.837.656-1.186.333-.37.749-.657 1.216-.84a4.606 4.606 0 0 1 1.84-.345 3.874 3.874 0 0 1 2.6.809c.325.298.578.663.741 1.07.164.405.233.841.204 1.277v3.235c0 .346.159.502.476.502h.705v1.583H63.28a1.6 1.6 0 0 1-1.004-.297.981.981 0 0 1-.395-.82v-.034h-.289a2.874 2.874 0 0 1-.352.57 2.082 2.082 0 0 1-.776.574c-.442.178-.918.26-1.395.242Zm.324-1.57a2.297 2.297 0 0 0 1.6-.542c.205-.185.366-.41.472-.663.106-.252.154-.524.141-.796v-.166h-2.315a1.788 1.788 0 0 0-1.022.266.878.878 0 0 0-.395.785.963.963 0 0 0 .409.809c.325.219.715.327 1.11.307ZM65.646 13.418a1.329 1.329 0 0 1-.912-.346 1.28 1.28 0 0 1-.381-.91c0-.34.137-.666.38-.908.248-.226.575-.35.913-.346a1.318 1.318 0 0 1 .93.346c.236.246.367.571.367.909 0 .338-.131.662-.366.91a1.3 1.3 0 0 1-.93.345Zm-.972 9.292v-8.241h1.96v8.24h-1.96ZM67.505 22.71v-8.241h1.924v1.147h.292c.185-.353.456-.656.79-.881a3.028 3.028 0 0 1 1.762-.418 3.355 3.355 0 0 1 1.72.435c.498.289.905.708 1.174 1.21.288.564.43 1.188.415 1.818v4.93h-1.96v-4.788a1.996 1.996 0 0 0-.503-1.493 1.927 1.927 0 0 0-1.41-.491 2.096 2.096 0 0 0-.897.154 2.06 2.06 0 0 0-.742.52 2.839 2.839 0 0 0-.616 1.929v4.169h-1.95ZM79.322 22.71V11.033h1.09v10.716h6.272v.964l-7.362-.003ZM89.577 22.945a4.12 4.12 0 0 1-1.575-.29 2.545 2.545 0 0 1-1.117-.861 2.28 2.28 0 0 1-.409-1.383 2.173 2.173 0 0 1 .409-1.338c.285-.364.67-.64 1.11-.798a4.265 4.265 0 0 1 1.55-.27h3.032v-.66a2.009 2.009 0 0 0-.568-1.525 2.38 2.38 0 0 0-1.699-.55 2.473 2.473 0 0 0-1.672.482 2.386 2.386 0 0 0-.918 1.454l-.987-.286c.13-.47.348-.913.645-1.304a3.11 3.11 0 0 1 1.177-.916 4.127 4.127 0 0 1 1.762-.345 3.422 3.422 0 0 1 2.429.802c.295.292.525.643.673 1.028.148.385.212.797.187 1.208v3.951c0 .346.162.498.479.498h.8v.868h-1.089a1.125 1.125 0 0 1-.835-.308 1.15 1.15 0 0 1-.307-.843v-.114h-.172c-.161.26-.353.5-.572.715a2.512 2.512 0 0 1-.909.567c-.456.16-.94.233-1.424.218Zm.07-.902a2.96 2.96 0 0 0 1.138-.178c.363-.133.695-.336.978-.597a2.881 2.881 0 0 0 .814-2.195v-.2H89.56a2.672 2.672 0 0 0-1.473.377c-.194.124-.35.297-.454.5-.103.204-.15.43-.135.657-.01.236.039.47.145.682.106.211.265.393.461.528.456.3.996.448 1.544.426Z"/><path fill="#0D0619" d="M99.293 22.945a3.693 3.693 0 0 1-2.115-.526 3.444 3.444 0 0 1-1.117-1.192h-.204v1.483h-.99V11.033h1.018v4.988h.208a2.97 2.97 0 0 1 1.677-1.41 4.345 4.345 0 0 1 1.544-.243c.709-.01 1.409.166 2.026.509a3.694 3.694 0 0 1 1.431 1.451c.367.688.549 1.455.529 2.23v.197a4.454 4.454 0 0 1-.536 2.23 3.766 3.766 0 0 1-1.441 1.452 4.03 4.03 0 0 1-2.03.508Zm-.236-.902c.423.017.846-.053 1.24-.206a3.047 3.047 0 0 0 1.05-.68 3.3 3.3 0 0 0 .882-2.43v-.138a3.289 3.289 0 0 0-.878-2.42 3.387 3.387 0 0 0-2.29-.887c-.852 0-1.67.317-2.292.887a3.3 3.3 0 0 0-.693 1.122 3.255 3.255 0 0 0-.195 1.298v.139c-.024.44.043.882.195 1.297a3.3 3.3 0 0 0 .693 1.122c.298.297.654.53 1.048.684.394.154.816.226 1.24.212ZM107.199 22.945a4.57 4.57 0 0 1-2.566-.691c-.705-.467-1.145-1.242-1.304-2.32l1.008-.183c.058.5.249.977.554 1.383.264.331.618.583 1.022.726.412.146.847.22 1.286.217a2.952 2.952 0 0 0 1.646-.408c.194-.119.354-.285.462-.483.109-.197.163-.42.158-.644a1.016 1.016 0 0 0-.134-.597 1.048 1.048 0 0 0-.454-.419 5.893 5.893 0 0 0-1.558-.453l-.786-.131a6.131 6.131 0 0 1-1.41-.412 2.507 2.507 0 0 1-.997-.743 1.828 1.828 0 0 1-.353-1.165 1.912 1.912 0 0 1 .846-1.652 4.453 4.453 0 0 1 4.515.024c.589.441.978 1.092 1.082 1.811l-.973.194a1.872 1.872 0 0 0-.248-.778 1.916 1.916 0 0 0-.559-.605 2.96 2.96 0 0 0-1.593-.4 2.825 2.825 0 0 0-1.501.345c-.18.108-.327.26-.426.443a1.14 1.14 0 0 0-.138.594c-.013.193.028.385.118.557.09.171.226.316.393.418.436.24.914.395 1.41.46l.782.131c.525.078 1.04.21 1.537.394.417.148.79.398 1.082.726.278.352.419.79.398 1.234.015.345-.058.688-.213.999-.154.31-.385.578-.672.778a4.09 4.09 0 0 1-2.414.65Z"/></svg>